# xmcd
#
# Track frame offsets:
#	150
#	23290
#	51891
#	69950
#	98935
#	122108
#	143100
#	163861
#	188091
#	205885
#
# Disc length: 3002 seconds
#
# Revision: 1
# Processed by: cddbd v1.5.2PL0 Copyright (c) Steve Scherf et al.
# Submitted via: EasyCDDAExtractor 2010.6.0.0
#
DISCID=840bb80a
DTITLE=Various Artist - Mastercuts - Ibiza Chill CD 3
DYEAR=2007
DGENRE=dance
TTITLE0=Kosheen - Wasting My Time
TTITLE1=Robert Miles - Children
TTITLE2=El Tato - Brujeria (Ruff Surf Mix)
TTITLE3=Ritmo and Compas - Enganaita (Chilled Mix)
TTITLE4=Black Shore - Hispana El Hambra
TTITLE5=El Parado - Setting Sun
TTITLE6=Gratia - Take My Heart
TTITLE7=The Cutless Quartet - The Next Step
TTITLE8=El Son - Chocolate (Cerro Mix)
TTITLE9=Eva Pablo - Babae (Bolivar String Mix)
EXTD=
EXTT0=
EXTT1=
EXTT2=
EXTT3=
EXTT4=
EXTT5=
EXTT6=
EXTT7=
EXTT8=
EXTT9=
PLAYORDER=
